<mxfile host="app.diagrams.net" agent="Mozilla/5.0 (Windows NT 10.0; Win64; x64; rv:140.0) Gecko/20100101 Firefox/140.0" version="28.0.4">
  <diagram name="Page-1" id="DyxUwbnOEtPTyfsSkPeW">
    <mxGraphModel dx="1106" dy="666" grid="1" gridSize="10" guides="1" tooltips="1" connect="1" arrows="1" fold="1" page="1" pageScale="1" pageWidth="850" pageHeight="1100" math="0" shadow="0">
      <root>
        <mxCell id="0" />
        <mxCell id="1" parent="0" />
        <mxCell id="m-NIOUpJFVmKxf_sPl9T-1" value="" style="rounded=0;whiteSpace=wrap;html=1;fillColor=#d5e8d4;strokeColor=#82b366;" vertex="1" parent="1">
          <mxGeometry width="240" height="800" as="geometry" />
        </mxCell>
        <mxCell id="m-NIOUpJFVmKxf_sPl9T-2" value="Learning Objectives" style="rounded=0;whiteSpace=wrap;html=1;" vertex="1" parent="1">
          <mxGeometry x="10" y="10" width="220" height="20" as="geometry" />
        </mxCell>
        <mxCell id="m-NIOUpJFVmKxf_sPl9T-3" value="1. Apply anatomical directional terms to the CNS." style="rounded=0;whiteSpace=wrap;html=1;" vertex="1" parent="1">
          <mxGeometry x="10" y="40" width="220" height="40" as="geometry" />
        </mxCell>
        <mxCell id="m-NIOUpJFVmKxf_sPl9T-4" value="2. Identify the five main regions of the CNS (cerebrum, diencephalon, cerebellum, brainstem,&lt;br&gt;spinal cord) and describe their functions." style="rounded=0;whiteSpace=wrap;html=1;" vertex="1" parent="1">
          <mxGeometry x="10" y="90" width="220" height="70" as="geometry" />
        </mxCell>
        <mxCell id="m-NIOUpJFVmKxf_sPl9T-5" value="3. Identify components of the ventricular system and describe CSF circulation" style="rounded=0;whiteSpace=wrap;html=1;" vertex="1" parent="1">
          <mxGeometry x="10" y="170" width="220" height="60" as="geometry" />
        </mxCell>
        <mxCell id="m-NIOUpJFVmKxf_sPl9T-6" value="4. Identify major fissures and sulci of the cerebrum." style="rounded=0;whiteSpace=wrap;html=1;" vertex="1" parent="1">
          <mxGeometry x="10" y="240" width="220" height="60" as="geometry" />
        </mxCell>
        <mxCell id="m-NIOUpJFVmKxf_sPl9T-7" value="5. Identify the lobes of the cerebrum (frontal, parietal, occipital, temporal, limbic, insula) and&lt;br&gt;describe their primary functions." style="rounded=0;whiteSpace=wrap;html=1;" vertex="1" parent="1">
          <mxGeometry x="10" y="310" width="220" height="70" as="geometry" />
        </mxCell>
        <mxCell id="m-NIOUpJFVmKxf_sPl9T-8" value="6. Identify the cerebellar hemispheres, tonsils and vermis." style="rounded=0;whiteSpace=wrap;html=1;" vertex="1" parent="1">
          <mxGeometry x="10" y="390" width="220" height="60" as="geometry" />
        </mxCell>
        <mxCell id="m-NIOUpJFVmKxf_sPl9T-10" value="7. Identify components of the diencephalon (thalamus, hypothalamus) and describe their&lt;br&gt;function." style="rounded=0;whiteSpace=wrap;html=1;" vertex="1" parent="1">
          <mxGeometry x="10" y="460" width="220" height="60" as="geometry" />
        </mxCell>
        <mxCell id="m-NIOUpJFVmKxf_sPl9T-11" value="8. Identify components of the brainstem (midbrain, pons, medulla)" style="rounded=0;whiteSpace=wrap;html=1;" vertex="1" parent="1">
          <mxGeometry x="10" y="530" width="220" height="60" as="geometry" />
        </mxCell>
        <mxCell id="m-NIOUpJFVmKxf_sPl9T-12" value="9. Identify components of the basal ganglia (caudate nucleus, putamen, globus pallidus)." style="rounded=0;whiteSpace=wrap;html=1;" vertex="1" parent="1">
          <mxGeometry x="10" y="600" width="220" height="50" as="geometry" />
        </mxCell>
        <mxCell id="m-NIOUpJFVmKxf_sPl9T-13" value="10.Identify the meningeal layers, dural reflections and ventricular spaces." style="rounded=0;whiteSpace=wrap;html=1;" vertex="1" parent="1">
          <mxGeometry x="10" y="660" width="220" height="40" as="geometry" />
        </mxCell>
        <mxCell id="m-NIOUpJFVmKxf_sPl9T-14" value="11.Describe the blood supply to the cerebrum (Circle of Willis)." style="rounded=0;whiteSpace=wrap;html=1;" vertex="1" parent="1">
          <mxGeometry x="10" y="710" width="220" height="50" as="geometry" />
        </mxCell>
      </root>
    </mxGraphModel>
  </diagram>
</mxfile>
